<svg width="28" height="28" viewBox="0 0 28 28" fill="none" xmlns="http://www.w3.org/2000/svg">
<path d="M11.3747 18.2349V15.7499H16.6247V18.2349C22.3822 17.5174 26.8709 14.5249 26.9759 11.0337C26.7026 9.88591 26.0506 8.86367 25.1251 8.13184C24.1996 7.40001 23.0546 7.00128 21.8747 6.99995H20.1859L20.2909 6.7112C20.672 5.65965 20.672 4.50775 20.2909 3.4562C20.0972 2.89595 19.7643 2.3941 19.3235 1.99771C18.8828 1.60132 18.3485 1.32337 17.7709 1.18995C15.291 0.78076 12.7608 0.78076 10.2809 1.18995C9.69953 1.31856 9.16055 1.59339 8.71499 1.98842C8.26943 2.38345 7.93202 2.88563 7.73469 3.44745C7.35219 4.49873 7.35219 5.65116 7.73469 6.70245L7.81344 6.99995H6.12469C4.94481 7.00128 3.79977 7.40001 2.87428 8.13184C1.94878 8.86367 1.29678 9.88591 1.02344 11.0337C1.12844 14.5249 5.61719 17.4999 11.3747 18.2349ZM11.0072 4.68995L11.0509 4.5937C13.0031 4.30304 14.9875 4.30304 16.9397 4.5937L16.9834 4.68995C17.085 4.97278 17.085 5.28211 16.9834 5.56495L16.4672 6.99995H11.5322L10.9984 5.5212C10.9093 5.25078 10.9123 4.95842 11.0072 4.68995ZM16.6247 22.7499H11.3747V20.0024C7.34969 19.5649 3.91969 18.1474 1.74969 16.1262V21.8749C1.74969 23.2673 2.30281 24.6027 3.28738 25.5873C4.27194 26.5718 5.6073 27.1249 6.99969 27.1249H20.9997C22.3921 27.1249 23.7274 26.5718 24.712 25.5873C25.6966 24.6027 26.2497 23.2673 26.2497 21.8749V16.1262C24.0797 18.1474 20.6497 19.5649 16.6247 20.0024V22.7499Z" fill="#A5A5A5"/>
</svg>
