<svg width="28" height="28" viewBox="0 0 28 28" fill="none" xmlns="http://www.w3.org/2000/svg">
<path d="M11.375 18.235V15.75H16.625V18.235C22.3825 17.5175 26.8712 14.525 26.9762 11.0338C26.7029 9.88598 26.0509 8.86373 25.1254 8.1319C24.1999 7.40008 23.0549 7.00134 21.875 7.00001H20.1862L20.2912 6.71126C20.6723 5.65971 20.6723 4.50781 20.2912 3.45626C20.0975 2.89601 19.7646 2.39416 19.3238 1.99777C18.8831 1.60138 18.3488 1.32343 17.7712 1.19001C15.2913 0.780821 12.7611 0.780821 10.2812 1.19001C9.69984 1.31862 9.16086 1.59345 8.7153 1.98848C8.26973 2.38351 7.93233 2.88569 7.73499 3.44751C7.35249 4.4988 7.35249 5.65122 7.73499 6.70251L7.81374 7.00001H6.12499C4.94511 7.00134 3.80008 7.40008 2.87458 8.1319C1.94908 8.86373 1.29708 9.88598 1.02374 11.0338C1.12874 14.525 5.61749 17.5 11.375 18.235ZM11.0075 4.69001L11.0512 4.59376C13.0034 4.3031 14.9878 4.3031 16.94 4.59376L16.9837 4.69001C17.0853 4.97284 17.0853 5.28217 16.9837 5.56501L16.4675 7.00001H11.5325L10.9987 5.52126C10.9096 5.25084 10.9127 4.95848 11.0075 4.69001V4.69001ZM16.625 22.75H11.375V20.0025C7.34999 19.565 3.91999 18.1475 1.74999 16.1263V21.875C1.74999 23.2674 2.30312 24.6028 3.28768 25.5873C4.27225 26.5719 5.60761 27.125 6.99999 27.125H21C22.3924 27.125 23.7277 26.5719 24.7123 25.5873C25.6969 24.6028 26.25 23.2674 26.25 21.875V16.1263C24.08 18.1475 20.65 19.565 16.625 20.0025V22.75Z" fill="#924AEF"/>
</svg>
