<svg width="28" height="28" viewBox="0 0 28 28" fill="none" xmlns="http://www.w3.org/2000/svg">
<path d="M22.1673 5.8335H21.0007V3.50016C21.0007 3.19074 20.8777 2.894 20.6589 2.6752C20.4401 2.45641 20.1434 2.3335 19.834 2.3335C19.5246 2.3335 19.2278 2.45641 19.009 2.6752C18.7902 2.894 18.6673 3.19074 18.6673 3.50016V5.8335H9.33398V3.50016C9.33398 3.19074 9.21107 2.894 8.99228 2.6752C8.77348 2.45641 8.47674 2.3335 8.16732 2.3335C7.8579 2.3335 7.56115 2.45641 7.34236 2.6752C7.12357 2.894 7.00065 3.19074 7.00065 3.50016V5.8335H5.83398C4.90573 5.8335 4.01549 6.20224 3.35911 6.85862C2.70273 7.515 2.33398 8.40524 2.33398 9.3335V10.5002H25.6673V9.3335C25.6673 8.40524 25.2986 7.515 24.6422 6.85862C23.9858 6.20224 23.0956 5.8335 22.1673 5.8335Z" fill="#A5A5A5"/>
<path d="M2.33398 22.1668C2.33398 23.0951 2.70273 23.9853 3.35911 24.6417C4.01549 25.2981 4.90573 25.6668 5.83398 25.6668H22.1673C23.0956 25.6668 23.9858 25.2981 24.6422 24.6417C25.2986 23.9853 25.6673 23.0951 25.6673 22.1668V12.8335H2.33398V22.1668Z" fill="#A5A5A5"/>
</svg>
