<svg width="28" height="28" viewBox="0 0 28 28" fill="none" xmlns="http://www.w3.org/2000/svg">
<path d="M23.3337 9.33329V16.3333C23.3316 18.1892 22.5935 19.9685 21.2812 21.2808C19.9688 22.5931 18.1895 23.3313 16.3337 23.3333H9.33366C9.02424 23.3333 8.72749 23.4562 8.5087 23.675C8.28991 23.8938 8.16699 24.1905 8.16699 24.5C8.16699 24.8094 8.28991 25.1061 8.5087 25.3249C8.72749 25.5437 9.02424 25.6666 9.33366 25.6666H16.3337C18.8081 25.6638 21.1805 24.6795 22.9302 22.9298C24.6799 21.1801 25.6642 18.8078 25.667 16.3333V9.33329C25.667 9.02387 25.5441 8.72713 25.3253 8.50833C25.1065 8.28954 24.8097 8.16663 24.5003 8.16663C24.1909 8.16663 23.8942 8.28954 23.6754 8.50833C23.4566 8.72713 23.3337 9.02387 23.3337 9.33329Z" fill="#A5A5A5"/>
<path d="M16.333 22.1667C17.8795 22.1649 19.3622 21.5497 20.4558 20.4561C21.5494 19.3626 22.1645 17.8799 22.1663 16.3334V8.16669C22.1645 6.62016 21.5494 5.13748 20.4558 4.04391C19.3622 2.95035 17.8795 2.33518 16.333 2.33336H8.16634C6.6198 2.33518 5.13713 2.95035 4.04356 4.04391C2.95 5.13748 2.33483 6.62016 2.33301 8.16669V16.3334C2.33483 17.8799 2.95 19.3626 4.04356 20.4561C5.13713 21.5497 6.6198 22.1649 8.16634 22.1667H16.333ZM9.11134 10.9831L10.6027 13.0453L15.5405 8.47668C15.7677 8.26652 16.0691 8.15524 16.3784 8.16732C16.6877 8.17939 16.9795 8.31384 17.1897 8.54108C17.3999 8.76831 17.5111 9.06973 17.4991 9.37901C17.487 9.6883 17.3525 9.98012 17.1253 10.1903L11.2215 15.652C11.1003 15.7641 10.9568 15.8491 10.8003 15.9016C10.6438 15.954 10.478 15.9727 10.3138 15.9563C10.1496 15.94 9.9907 15.8889 9.84765 15.8066C9.70461 15.7243 9.58066 15.6126 9.48398 15.4789L7.22134 12.3502C7.04915 12.0992 6.98187 11.7909 7.03386 11.491C7.08585 11.1911 7.25299 10.9234 7.49962 10.745C7.74625 10.5666 8.05283 10.4916 8.35394 10.5361C8.65506 10.5806 8.92686 10.741 9.11134 10.9831Z" fill="#A5A5A5"/>
</svg>
