<svg width="28" height="28" viewBox="0 0 28 28" fill="none" xmlns="http://www.w3.org/2000/svg">
<path d="M25.7372 7.5127L20.4872 2.2627C20.1591 1.93457 19.7139 1.75 19.2499 1.75H3.49994C2.53351 1.75 1.74994 2.53357 1.74994 3.5V24.5C1.74994 25.4673 2.53351 26.25 3.49994 26.25H24.4999C25.4664 26.25 26.2499 25.4673 26.2499 24.5V8.75C26.2499 8.28601 26.0654 7.84082 25.7372 7.5127V7.5127ZM13.9999 8.75C15.9302 8.75 17.4999 10.3197 17.4999 12.25C17.4999 14.1803 15.9302 15.75 13.9999 15.75C12.0696 15.75 10.4999 14.1803 10.4999 12.25C10.4999 10.3197 12.0696 8.75 13.9999 8.75V8.75ZM20.1249 21H7.87494V19.25C7.87494 18.0375 8.71576 16.9839 10.1248 16.431C12.3892 15.5406 15.6098 15.5406 17.8759 16.431C19.2841 16.9839 20.1249 18.0375 20.1249 19.25V21V21ZM20.9999 8.75C20.0334 8.75 19.2499 7.96643 19.2499 7V3.5L24.4999 8.75H20.9999Z" fill="#924AEF"/>
</svg>
