<svg width="28" height="28" viewBox="0 0 28 28" fill="none" xmlns="http://www.w3.org/2000/svg">
<path d="M14.0001 13.8376L25.3831 7.62872C25.021 6.4376 24.2867 5.39389 23.2879 4.65081C22.2891 3.90772 21.0784 3.50438 19.8335 3.5H8.16679C6.92188 3.50438 5.71115 3.90772 4.71233 4.65081C3.71351 5.39389 2.9792 6.4376 2.61719 7.62872L14.0001 13.8376Z" fill="#A5A5A5"/>
<path d="M14.5585 16.1907C14.3871 16.2841 14.1949 16.3331 13.9997 16.3331C13.8044 16.3331 13.6123 16.2841 13.4408 16.1907L2.33301 10.1318V18.6665C2.33483 20.213 2.95 21.6957 4.04356 22.7892C5.13713 23.8828 6.6198 24.498 8.16634 24.4998H19.833C21.3795 24.498 22.8622 23.8828 23.9558 22.7892C25.0494 21.6957 25.6645 20.213 25.6663 18.6665V10.1318L14.5585 16.1907Z" fill="#A5A5A5"/>
</svg>
