<svg width="28" height="28" viewBox="0 0 28 28" fill="none" xmlns="http://www.w3.org/2000/svg">
<path d="M19.6003 3.36011H8.40035C7.0643 3.36218 5.78356 3.89385 4.83882 4.83858C3.89409 5.78331 3.36243 7.06405 3.36035 8.40011V19.6001C3.36243 20.9362 3.89409 22.2169 4.83882 23.1616C5.78356 24.1064 7.0643 24.638 8.40035 24.6401H19.6003C20.9364 24.638 22.2171 24.1064 23.1619 23.1616C24.1066 22.2169 24.6383 20.9362 24.6404 19.6001V8.40011C24.6383 7.06405 24.1066 5.78331 23.1619 4.83858C22.2171 3.89385 20.9364 3.36218 19.6003 3.36011ZM20.474 14.5601H17.4948L15.6131 18.2673C15.5676 18.3588 15.4972 18.4357 15.4101 18.4892C15.323 18.5426 15.2226 18.5705 15.1203 18.5697H15.0868C14.9782 18.5659 14.8733 18.5298 14.7855 18.4659C14.6977 18.4021 14.631 18.3134 14.594 18.2113L12.3316 12.3761L11.3348 14.2577C11.2903 14.3501 11.2202 14.4277 11.1328 14.4813C11.0454 14.535 10.9444 14.5623 10.842 14.5601H7.52675C7.37823 14.5601 7.23579 14.5011 7.13077 14.3961C7.02575 14.2911 6.96675 14.1486 6.96675 14.0001C6.96675 13.8516 7.02575 13.7091 7.13077 13.6041C7.23579 13.4991 7.37823 13.4401 7.52675 13.4401H10.506L11.9172 10.7745C11.9651 10.6776 12.0407 10.5971 12.1344 10.5433C12.2281 10.4895 12.3357 10.4647 12.4436 10.4721C12.5515 10.4779 12.6555 10.5148 12.743 10.5784C12.8304 10.642 12.8976 10.7296 12.9364 10.8305L15.1876 16.6433L16.6547 13.7425C16.7046 13.6521 16.7775 13.5765 16.866 13.5234C16.9545 13.4703 17.0555 13.4415 17.1587 13.4401H20.474C20.6225 13.4401 20.7649 13.4991 20.8699 13.6041C20.9749 13.7091 21.034 13.8516 21.034 14.0001C21.034 14.1486 20.9749 14.2911 20.8699 14.3961C20.7649 14.5011 20.6225 14.5601 20.474 14.5601Z" fill="#A5A5A5"/>
</svg>
