<svg width="28" height="28" viewBox="0 0 28 28" fill="none" xmlns="http://www.w3.org/2000/svg">
<g clip-path="url(#clip0_874_29961)">
<path d="M26.8333 9.33333C26.1882 9.33333 25.6667 8.81067 25.6667 8.16667V3.5C25.6667 2.85717 25.144 2.33333 24.5 2.33333H19.8333C19.1882 2.33333 18.6667 1.81067 18.6667 1.16667C18.6667 0.522667 19.1882 0 19.8333 0H24.5C26.4297 0 28 1.57033 28 3.5V8.16667C28 8.81067 27.4785 9.33333 26.8333 9.33333ZM8.16667 28H3.5C1.57033 28 0 26.4297 0 24.5V19.8333C0 19.1893 0.5215 18.6667 1.16667 18.6667C1.81183 18.6667 2.33333 19.1893 2.33333 19.8333V24.5C2.33333 25.1428 2.856 25.6667 3.5 25.6667H8.16667C8.81183 25.6667 9.33333 26.1893 9.33333 26.8333C9.33333 27.4773 8.81183 28 8.16667 28ZM24.5 28H19.8333C19.1882 28 18.6667 27.4773 18.6667 26.8333C18.6667 26.1893 19.1882 25.6667 19.8333 25.6667H24.5C25.144 25.6667 25.6667 25.1428 25.6667 24.5V19.8333C25.6667 19.1893 26.1882 18.6667 26.8333 18.6667C27.4785 18.6667 28 19.1893 28 19.8333V24.5C28 26.4297 26.4297 28 24.5 28ZM1.16667 9.33333C0.5215 9.33333 0 8.81067 0 8.16667V3.5C0 1.57033 1.57033 0 3.5 0H8.16667C8.81183 0 9.33333 0.522667 9.33333 1.16667C9.33333 1.81067 8.81183 2.33333 8.16667 2.33333H3.5C2.856 2.33333 2.33333 2.85717 2.33333 3.5V8.16667C2.33333 8.81067 1.81183 9.33333 1.16667 9.33333ZM18.7565 8.40933C18.1615 8.40933 17.6797 8.834 17.6797 9.35667V13.9382C17.6797 14.0257 17.5992 14.0957 17.5 14.0957C17.4008 14.0957 17.3203 14.0245 17.3203 13.9382V7.462C17.3203 6.93817 16.8385 6.51467 16.2435 6.51467C15.6485 6.5135 15.1667 6.93817 15.1667 7.462V13.9393C15.1667 14.0268 15.0862 14.0968 14.987 14.0968C14.8878 14.0968 14.8073 14.0257 14.8073 13.9393V6.82967C14.8073 6.30583 14.3255 5.88233 13.7305 5.88233C13.1355 5.88233 12.6537 6.307 12.6537 6.82967V13.9393C12.6537 14.0268 12.5732 14.0968 12.474 14.0968C12.3748 14.0968 12.2943 14.0257 12.2943 13.9393V7.462C12.2943 6.937 11.8137 6.51467 11.2175 6.51467C10.6213 6.51467 10.1407 6.93817 10.1407 7.462V17.1115C10.1407 17.1115 8.97983 15.2157 7.26833 15.2157C6.19267 15.2157 5.83333 15.554 5.83333 15.8468C5.83333 16.6448 6.90433 16.3205 7.987 19.005C9.06967 21.6895 10.486 22.785 12.2943 22.7978H15.1667C15.1538 22.7978 15.1795 22.7978 15.1667 22.7978C17.7217 22.7978 19.8333 21.5892 19.8333 19.334C19.8333 19.3305 19.8333 19.3258 19.8333 19.3223V17.1103V9.35783C19.8333 8.834 19.3515 8.40933 18.7565 8.40933Z" fill="#A5A5A5"/>
</g>
<defs>
<clipPath id="clip0_874_29961">
<rect width="28" height="28" fill="white"/>
</clipPath>
</defs>
</svg>
