<svg width="28" height="28" viewBox="0 0 28 28" fill="none" xmlns="http://www.w3.org/2000/svg">
<path fill-rule="evenodd" clip-rule="evenodd" d="M12.9639 0.951416C9.58113 0.951416 6.83887 3.69367 6.83887 7.07642C6.83887 10.4592 9.58113 13.2014 12.9639 13.2014C16.3467 13.2014 19.0889 10.4592 19.0889 7.07642C19.0889 3.69367 16.3467 0.951416 12.9639 0.951416ZM22.9275 14.1052C22.3605 13.4628 21.5282 13.0555 20.6018 13.0555H18.3757C16.6631 13.0555 15.2747 14.444 15.2747 16.1567V23.9479C15.2747 25.6607 16.6631 27.049 18.3757 27.049H20.6018C21.5282 27.049 22.3605 26.6417 22.9275 25.9994C23.2473 25.6371 23.2127 25.0841 22.8505 24.7643C22.4881 24.4445 21.9352 24.4791 21.6154 24.8413C21.3666 25.1233 21.0053 25.299 20.6018 25.299H18.3757C17.6296 25.299 17.0247 24.6941 17.0247 23.9479V16.1567C17.0247 15.4105 17.6296 14.8055 18.3757 14.8055H20.6018C21.0053 14.8055 21.3666 14.9812 21.6154 15.2632C21.9352 15.6255 22.4881 15.66 22.8505 15.3402C23.2127 15.0204 23.2473 14.4674 22.9275 14.1052Z" fill="#A5A5A5"/>
<path fill-rule="evenodd" clip-rule="evenodd" d="M26.2459 19.4335C26.5876 19.7753 26.5876 20.3292 26.2459 20.6709L23.9126 23.0042C23.5709 23.346 23.0168 23.346 22.6751 23.0042C22.3334 22.6625 22.3334 22.1086 22.6751 21.7669L25.0084 19.4335C25.3502 19.0918 25.9042 19.0918 26.2459 19.4335Z" fill="#A5A5A5"/>
<path fill-rule="evenodd" clip-rule="evenodd" d="M26.2459 20.6707C26.5876 20.329 26.5876 19.7751 26.2459 19.4334L23.9126 17.1C23.5709 16.7583 23.0168 16.7583 22.6751 17.1C22.3334 17.4418 22.3334 17.9957 22.6751 18.3374L25.0084 20.6707C25.3502 21.0125 25.9042 21.0125 26.2459 20.6707Z" fill="#A5A5A5"/>
<path fill-rule="evenodd" clip-rule="evenodd" d="M18.3356 20.0522C18.3356 19.569 18.7272 19.1772 19.2106 19.1772H25.0439C25.5271 19.1772 25.9189 19.569 25.9189 20.0522C25.9189 20.5355 25.5271 20.9272 25.0439 20.9272H19.2106C18.7272 20.9272 18.3356 20.5355 18.3356 20.0522Z" fill="#A5A5A5"/>
<path d="M13.5424 15.7388C13.5307 15.8765 13.5247 16.0158 13.5247 16.1565V23.9477C13.5247 24.8178 13.7537 25.6344 14.1548 26.3405H3.52604C2.39847 26.3405 1.48438 25.4264 1.48438 24.2988V20.0149C1.48438 19.2996 1.87916 18.6428 2.51078 18.3071C5.95322 16.4778 9.75945 15.6217 13.5424 15.7388Z" fill="#A5A5A5"/>
</svg>
