<svg width="28" height="28" viewBox="0 0 28 28" fill="none" xmlns="http://www.w3.org/2000/svg">
<path fill-rule="evenodd" clip-rule="evenodd" d="M12.9639 0.95134C9.58113 0.95134 6.83887 3.69359 6.83887 7.07634C6.83887 10.4591 9.58113 13.2013 12.9639 13.2013C16.3467 13.2013 19.0889 10.4591 19.0889 7.07634C19.0889 3.69359 16.3467 0.95134 12.9639 0.95134V0.95134ZM22.9275 14.1051C22.3605 13.4628 21.5282 13.0555 20.6018 13.0555H18.3757C16.6631 13.0555 15.2747 14.4439 15.2747 16.1566V23.9478C15.2747 25.6606 16.6631 27.0489 18.3757 27.0489H20.6018C21.5282 27.0489 22.3605 26.6417 22.9275 25.9993C23.2473 25.637 23.2127 25.084 22.8505 24.7643C22.4881 24.4445 21.9352 24.479 21.6154 24.8413C21.3666 25.1232 21.0053 25.2989 20.6018 25.2989H18.3757C17.6296 25.2989 17.0247 24.694 17.0247 23.9478V16.1566C17.0247 15.4104 17.6296 14.8055 18.3757 14.8055H20.6018C21.0053 14.8055 21.3666 14.9812 21.6154 15.2632C21.9352 15.6254 22.4881 15.6599 22.8505 15.3402C23.2127 15.0204 23.2473 14.4674 22.9275 14.1051V14.1051Z" fill="#924AEF"/>
<path fill-rule="evenodd" clip-rule="evenodd" d="M26.2459 19.4334C26.5876 19.7751 26.5876 20.3291 26.2459 20.6708L23.9126 23.0041C23.5709 23.3458 23.0168 23.3458 22.6751 23.0041C22.3334 22.6624 22.3334 22.1085 22.6751 21.7667L25.0084 19.4334C25.3502 19.0917 25.9042 19.0917 26.2459 19.4334Z" fill="#924AEF"/>
<path fill-rule="evenodd" clip-rule="evenodd" d="M26.2459 20.6708C26.5876 20.3291 26.5876 19.7751 26.2459 19.4334L23.9126 17.1001C23.5709 16.7584 23.0168 16.7584 22.6751 17.1001C22.3334 17.4418 22.3334 17.9957 22.6751 18.3374L25.0084 20.6708C25.3502 21.0125 25.9042 21.0125 26.2459 20.6708Z" fill="#924AEF"/>
<path fill-rule="evenodd" clip-rule="evenodd" d="M18.3356 20.0521C18.3356 19.5689 18.7272 19.1771 19.2106 19.1771H25.0439C25.5271 19.1771 25.9189 19.5689 25.9189 20.0521C25.9189 20.5353 25.5271 20.9271 25.0439 20.9271H19.2106C18.7272 20.9271 18.3356 20.5353 18.3356 20.0521Z" fill="#924AEF"/>
<path d="M13.5424 15.7389C13.5307 15.8766 13.5247 16.0159 13.5247 16.1566V23.9478C13.5247 24.8179 13.7537 25.6345 14.1548 26.3405H3.52604C2.39847 26.3405 1.48438 25.4265 1.48438 24.2989V20.015C1.48438 19.2997 1.87916 18.6429 2.51079 18.3072C5.95322 16.4779 9.75945 15.6218 13.5424 15.7389V15.7389Z" fill="#924AEF"/>
</svg>
