<svg width="28" height="28" viewBox="0 0 28 28" fill="none" xmlns="http://www.w3.org/2000/svg">
<path d="M20.048 3.92C17.92 1.792 15.008 0.559998 11.984 0.559998C8.96 0.559998 6.048 1.792 3.92 3.92C1.792 6.048 0.559998 8.96 0.559998 11.984C0.559998 15.008 1.68 17.92 3.92 20.048C6.16 22.288 9.072 23.408 11.984 23.408C13.44 23.408 14.896 23.072 16.24 22.624C16.688 22.4 17.248 22.176 17.696 21.952C18.704 23.856 19.936 25.648 20.72 26.432C22.288 28 24.752 28 26.32 26.432C27.888 24.864 27.888 22.4 26.32 20.832C25.648 20.16 23.744 18.816 21.84 17.808C24.416 13.328 23.744 7.616 20.048 3.92ZM11.984 5.04C13.44 5.04 14.56 6.16 14.56 7.616C14.56 9.072 13.44 10.192 11.984 10.192C10.528 10.192 9.408 9.072 9.408 7.616C9.408 6.272 10.528 5.04 11.984 5.04ZM15.68 16.464H8.288C6.832 16.464 6.048 14.896 6.72 13.664C7.168 12.88 7.728 12.208 8.4 11.76C8.624 11.536 8.96 11.648 9.184 11.76C9.968 12.208 10.864 12.544 11.872 12.544C12.88 12.544 13.776 12.208 14.56 11.76C14.784 11.536 15.12 11.536 15.344 11.76C16.128 12.32 16.688 12.992 17.136 13.888C17.92 15.008 16.912 16.464 15.68 16.464Z" fill="#924AEF"/>
</svg>
