<svg width="28" height="28" viewBox="0 0 28 28" fill="none" xmlns="http://www.w3.org/2000/svg">
<g clip-path="url(#clip0_874_29941)">
<path d="M20.0481 3.92006C17.9201 1.79206 15.0081 0.560059 11.9841 0.560059C8.96006 0.560059 6.04806 1.79206 3.92006 3.92006C1.79206 6.04806 0.560059 8.96006 0.560059 11.9841C0.560059 15.0081 1.68006 17.9201 3.92006 20.0481C6.16006 22.2881 9.07206 23.4081 11.9841 23.4081C13.4401 23.4081 14.8961 23.0721 16.2401 22.6241C16.6881 22.4001 17.2481 22.1761 17.6961 21.9521C18.7041 23.8561 19.9361 25.6481 20.7201 26.4321C22.2881 28.0001 24.7521 28.0001 26.3201 26.4321C27.8881 24.8641 27.8881 22.4001 26.3201 20.8321C25.6481 20.1601 23.7441 18.8161 21.8401 17.8081C24.4161 13.3281 23.7441 7.61606 20.0481 3.92006ZM11.9841 5.04006C13.4401 5.04006 14.5601 6.16006 14.5601 7.61606C14.5601 9.07206 13.4401 10.1921 11.9841 10.1921C10.5281 10.1921 9.40806 9.07206 9.40806 7.61606C9.40806 6.27206 10.5281 5.04006 11.9841 5.04006ZM15.6801 16.4641H8.28806C6.83206 16.4641 6.04806 14.8961 6.72006 13.6641C7.16806 12.8801 7.72806 12.2081 8.40006 11.7601C8.62406 11.5361 8.96006 11.6481 9.18406 11.7601C9.96806 12.2081 10.8641 12.5441 11.8721 12.5441C12.8801 12.5441 13.7761 12.2081 14.5601 11.7601C14.7841 11.5361 15.1201 11.5361 15.3441 11.7601C16.1281 12.3201 16.6881 12.9921 17.1361 13.8881C17.9201 15.0081 16.9121 16.4641 15.6801 16.4641Z" fill="#A5A5A5"/>
</g>
<defs>
<clipPath id="clip0_874_29941">
<rect width="28" height="28" fill="white"/>
</clipPath>
</defs>
</svg>
