<svg width="28" height="28" viewBox="0 0 28 28" fill="none" xmlns="http://www.w3.org/2000/svg">
<path d="M14.0004 2.3335C11.7522 2.33355 9.55195 2.98316 7.66427 4.20418C5.7766 5.42519 4.28191 7.1656 3.36001 9.21604C2.43812 11.2665 2.12829 13.5396 2.46779 15.762C2.80729 17.9844 3.78166 20.0613 5.27369 21.743C5.38273 21.8656 5.51639 21.9639 5.66598 22.0315C5.81556 22.099 5.97769 22.1342 6.14181 22.1349C16.1006 22.175 11.6304 22.1664 21.8303 22.1633C21.9944 22.1634 22.1567 22.1289 22.3065 22.0619C22.4563 21.995 22.5902 21.8972 22.6996 21.7748C24.2002 20.0958 25.1829 18.0185 25.529 15.7934C25.8752 13.5683 25.5699 11.2905 24.6502 9.23506C23.7304 7.1796 22.2355 5.43423 20.3457 4.20958C18.456 2.98494 16.2522 2.33337 14.0004 2.3335ZM19.3563 11.4412L17.317 12.9345C17.4337 13.2779 17.4956 13.6375 17.5004 14.0002C17.5036 14.7828 17.2455 15.5442 16.767 16.1636C16.2884 16.7829 15.6168 17.2248 14.8587 17.4192C14.1005 17.6136 13.2992 17.5493 12.5816 17.2366C11.8641 16.9239 11.2715 16.3807 10.8978 15.693C10.5241 15.0053 10.3906 14.2125 10.5185 13.4404C10.6464 12.6682 11.0284 11.9608 11.6039 11.4304C12.1794 10.8999 12.9156 10.5768 13.6956 10.5122C14.4756 10.4475 15.2549 10.6451 15.9098 11.0736L17.9778 9.55901C18.2276 9.38224 18.537 9.31075 18.8391 9.35997C19.1412 9.40918 19.4119 9.57515 19.5927 9.82209C19.7736 10.069 19.8502 10.3772 19.8059 10.68C19.7617 10.9829 19.6002 11.2563 19.3563 11.4412Z" fill="#924AEF"/>
<path d="M13.9997 15.1668C14.644 15.1668 15.1664 14.6445 15.1664 14.0002C15.1664 13.3558 14.644 12.8335 13.9997 12.8335C13.3553 12.8335 12.833 13.3558 12.833 14.0002C12.833 14.6445 13.3553 15.1668 13.9997 15.1668Z" fill="#924AEF"/>
</svg>
