<svg width="22" height="22" viewBox="0 0 22 22" fill="none" xmlns="http://www.w3.org/2000/svg">
<path d="M16.5999 0.360107H5.39986C4.06381 0.362181 2.78307 0.893845 1.83834 1.83858C0.893601 2.78331 0.361937 4.06405 0.359863 5.40011V16.6001C0.361937 17.9362 0.893601 19.2169 1.83834 20.1616C2.78307 21.1064 4.06381 21.638 5.39986 21.6401H16.5999C17.9359 21.638 19.2167 21.1064 20.1614 20.1616C21.1061 19.2169 21.6378 17.9362 21.6399 16.6001V5.40011C21.6378 4.06405 21.1061 2.78331 20.1614 1.83858C19.2167 0.893845 17.9359 0.362181 16.5999 0.360107ZM17.4735 11.5601H14.4943L12.6127 15.2673C12.5671 15.3588 12.4968 15.4357 12.4096 15.4892C12.3225 15.5426 12.2221 15.5705 12.1199 15.5697H12.0863C11.9777 15.5659 11.8728 15.5298 11.785 15.4659C11.6972 15.4021 11.6305 15.3134 11.5935 15.2113L9.33106 9.37611L8.33426 11.2577C8.2898 11.3501 8.21969 11.4277 8.13231 11.4813C8.04492 11.535 7.94396 11.5623 7.84146 11.5601H4.52626C4.37774 11.5601 4.2353 11.5011 4.13028 11.3961C4.02526 11.2911 3.96626 11.1486 3.96626 11.0001C3.96626 10.8516 4.02526 10.7091 4.13028 10.6041C4.2353 10.4991 4.37774 10.4401 4.52626 10.4401H7.50546L8.91666 7.77451C8.96457 7.67762 9.04018 7.59715 9.1339 7.5433C9.22763 7.48946 9.33523 7.46468 9.44306 7.47211C9.55104 7.47789 9.65503 7.51481 9.74248 7.57841C9.82992 7.64201 9.89709 7.72957 9.93586 7.83051L12.1871 13.6433L13.6543 10.7425C13.7041 10.6521 13.777 10.5765 13.8655 10.5234C13.954 10.4703 14.055 10.4415 14.1583 10.4401H17.4735C17.622 10.4401 17.7644 10.4991 17.8694 10.6041C17.9745 10.7091 18.0335 10.8516 18.0335 11.0001C18.0335 11.1486 17.9745 11.2911 17.8694 11.3961C17.7644 11.5011 17.622 11.5601 17.4735 11.5601Z" fill="#A5A5A5"/>
</svg>
