<svg width="28" height="28" viewBox="0 0 28 28" fill="none" xmlns="http://www.w3.org/2000/svg">
<path d="M25.7373 7.5127L20.4873 2.2627C20.1592 1.93457 19.714 1.75 19.25 1.75H3.5C2.53357 1.75 1.75 2.53357 1.75 3.5V24.5C1.75 25.4673 2.53357 26.25 3.5 26.25H24.5C25.4664 26.25 26.25 25.4673 26.25 24.5V8.75C26.25 8.28601 26.0654 7.84082 25.7373 7.5127ZM14 8.75C15.9303 8.75 17.5 10.3197 17.5 12.25C17.5 14.1803 15.9303 15.75 14 15.75C12.0697 15.75 10.5 14.1803 10.5 12.25C10.5 10.3197 12.0697 8.75 14 8.75ZM20.125 21H7.875V19.25C7.875 18.0375 8.71582 16.9839 10.1249 16.431C12.3893 15.5406 15.6099 15.5406 17.876 16.431C19.2842 16.9839 20.125 18.0375 20.125 19.25V21ZM21 8.75C20.0335 8.75 19.25 7.96643 19.25 7V3.5L24.5 8.75H21Z" fill="#A5A5A5"/>
</svg>
