<svg width="28" height="28" viewBox="0 0 28 28" fill="none" xmlns="http://www.w3.org/2000/svg">
<path d="M9.91664 13.4166C12.4833 13.4166 14.5833 11.3166 14.5833 8.74998C14.5833 6.18331 12.4833 4.08331 9.91664 4.08331C7.34998 4.08331 5.24998 6.18331 5.24998 8.74998C5.24998 11.3166 7.34998 13.4166 9.91664 13.4166ZM15.1666 12.3666C17.15 14 20.0666 13.65 21.7 11.6666C23.3333 9.68331 22.9833 6.76665 21 5.13331C20.1833 4.43331 19.1333 4.08331 18.0833 4.08331C17.0333 4.08331 15.9833 4.43331 15.1666 5.13331C17.15 6.76665 17.5 9.56665 15.8666 11.6666C15.75 11.9 15.4 12.1333 15.1666 12.3666ZM26.7166 22.6333C26.0166 18.3166 22.4 15.1666 18.0833 15.1666C17.0333 15.1666 16.1 15.2833 15.1666 15.6333C18.2 16.6833 20.4166 19.3666 20.8833 22.5166C21 23.1 20.5333 23.8 19.8333 23.8H19.7166H25.55C26.25 23.8 26.7166 23.3333 26.7166 22.6333C26.7166 22.6333 26.7166 22.75 26.7166 22.6333ZM9.91664 15.1666C5.59998 15.1666 1.86664 18.3166 1.28331 22.6333C1.16664 23.2166 1.63331 23.9166 2.33331 23.9166H2.44998H17.3833C18.0833 23.9166 18.55 23.45 18.55 22.75V22.6333C17.9666 18.3166 14.2333 15.1666 9.91664 15.1666Z" fill="#924AEF"/>
</svg>
