<svg width="28" height="28" viewBox="0 0 28 28" fill="none" xmlns="http://www.w3.org/2000/svg">
<path d="M9.9167 13.4166C12.4834 13.4166 14.5834 11.3166 14.5834 8.74992C14.5834 6.18325 12.4834 4.08325 9.9167 4.08325C7.35004 4.08325 5.25004 6.18325 5.25004 8.74992C5.25004 11.3166 7.35004 13.4166 9.9167 13.4166ZM15.1667 12.3666C17.15 13.9999 20.0667 13.6499 21.7 11.6666C23.3334 9.68325 22.9834 6.76659 21 5.13325C20.1834 4.43325 19.1334 4.08325 18.0834 4.08325C17.0334 4.08325 15.9834 4.43325 15.1667 5.13325C17.15 6.76659 17.5 9.56659 15.8667 11.6666C15.75 11.8999 15.4 12.1333 15.1667 12.3666ZM26.7167 22.6333C26.0167 18.3166 22.4 15.1666 18.0834 15.1666C17.0334 15.1666 16.1 15.2833 15.1667 15.6333C18.2 16.6833 20.4167 19.3666 20.8834 22.5166C21 23.0999 20.5334 23.7999 19.8334 23.7999H19.7167H25.55C26.25 23.7999 26.7167 23.3333 26.7167 22.6333C26.7167 22.7499 26.7167 22.6333 26.7167 22.6333ZM9.9167 15.1666C5.60004 15.1666 1.8667 18.3166 1.28337 22.6333C1.1667 23.2166 1.63337 23.9166 2.33337 23.9166H2.45004H17.3834C18.0834 23.9166 18.55 23.4499 18.55 22.7499V22.6333C17.9667 18.3166 14.2334 15.1666 9.9167 15.1666Z" fill="#A5A5A5"/>
</svg>
